<svg id="Layer_1" data-name="Layer 1" xmlns="http://www.w3.org/2000/svg" xmlns:xlink="http://www.w3.org/1999/xlink" viewBox="0 0 88 88"><defs><style>.cls-1,.cls-3{fill:none;}.cls-2{clip-path:url(#clip-path);}</style><clipPath id="clip-path"><rect class="cls-1" width="88" height="88"/></clipPath></defs><g class="cls-2"><path class="cls-3" d="M44,85A41,41,0,1,0,3,44,41,41,0,0,0,44,85Z"/></g><path class="cls-4" d="M37.35,62.57a1.33,1.33,0,0,1,0-2.66H60V45.28a1.33,1.33,0,0,1,2.66,0v16a1.38,1.38,0,0,1-.39.94,1.33,1.33,0,0,1-.94.39Zm-6.65,0A1.33,1.33,0,1,1,32,61.24a1.34,1.34,0,0,1-1.33,1.33Zm-4-2.66a1.34,1.34,0,0,1-1.33-1.33V26.67a1.36,1.36,0,0,1,.39-.94,1.33,1.33,0,0,1,.94-.39H61.29a1.33,1.33,0,0,1,.94.39,1.36,1.36,0,0,1,.39.94V32A1.33,1.33,0,0,1,60,32V28H28V58.58a1.33,1.33,0,0,1-1.33,1.33ZM61.29,40a1.33,1.33,0,1,1,1.33-1.33A1.32,1.32,0,0,1,61.29,40Z"/><path class="cls-4" d="M56,28H45.33a1.33,1.33,0,0,1,0-2.66h9.31V22.68H33.36v4A1.33,1.33,0,0,1,32,28h0a1.37,1.37,0,0,1-.85-.32l-.08-.07L31,27.54a1.33,1.33,0,0,1-.33-.86h0V21.35a1.38,1.38,0,0,1,.39-.94A1.33,1.33,0,0,1,32,20H56a1.33,1.33,0,0,1,1.33,1.33v5.32a1.33,1.33,0,0,1-.39.94A1.38,1.38,0,0,1,56,28ZM38.68,28A1.33,1.33,0,1,1,40,26.67,1.34,1.34,0,0,1,38.68,28Z"/><path class="cls-4" d="M37.35,22.68A1.34,1.34,0,0,1,36,21.35v-8a1.33,1.33,0,1,1,2.66,0v8a1.34,1.34,0,0,1-1.33,1.33Z"/><path class="cls-4" d="M44,22.68a1.34,1.34,0,0,1-1.33-1.33v-8a1.33,1.33,0,1,1,2.66,0v8A1.34,1.34,0,0,1,44,22.68Z"/><path class="cls-4" d="M50.65,22.68a1.34,1.34,0,0,1-1.33-1.33v-8a1.33,1.33,0,1,1,2.66,0v8a1.34,1.34,0,0,1-1.33,1.33Z"/><path class="cls-4" d="M45.33,67.89a1.33,1.33,0,1,1,0-2.66h9.31V62.57H33.36v4A1.33,1.33,0,0,1,32,67.89h0a1.25,1.25,0,0,1-.93-.4,1.31,1.31,0,0,1-.39-.93V61.24a1.38,1.38,0,0,1,.39-.94,1.33,1.33,0,0,1,.94-.39H56a1.33,1.33,0,0,1,1.33,1.33v5.32A1.33,1.33,0,0,1,56,67.89Zm-6.65,0A1.33,1.33,0,1,1,40,66.56a1.34,1.34,0,0,1-1.33,1.33Z"/><path class="cls-4" d="M37.35,75.87A1.34,1.34,0,0,1,36,74.54v-8a1.33,1.33,0,0,1,2.66,0v8a1.34,1.34,0,0,1-1.33,1.33Z"/><path class="cls-4" d="M44,75.87a1.34,1.34,0,0,1-1.33-1.33v-8a1.33,1.33,0,0,1,2.66,0v8A1.34,1.34,0,0,1,44,75.87Z"/><path class="cls-4" d="M50.65,75.87a1.34,1.34,0,0,1-1.33-1.33v-8a1.33,1.33,0,0,1,2.66,0v8a1.34,1.34,0,0,1-1.33,1.33Z"/><path class="cls-4" d="M66.61,57.25H61.29a1.32,1.32,0,0,1-.94-.39,1.33,1.33,0,0,1-.39-.94V50.6a1.33,1.33,0,0,1,2.66,0v4h2.66V33.32H62.62v4a1.33,1.33,0,0,1-2.66,0V32a1.33,1.33,0,0,1,1.33-1.33h5.32a1.33,1.33,0,0,1,.94.39,1.36,1.36,0,0,1,.39.94V55.92a1.36,1.36,0,0,1-.39.94,1.33,1.33,0,0,1-.94.39Zm-5.32-12A1.33,1.33,0,1,1,62.62,44a1.32,1.32,0,0,1-1.33,1.33Z"/><path class="cls-4" d="M74.58,38.64h-8a1.33,1.33,0,0,1,0-2.66h8a1.33,1.33,0,0,1,0,2.66Z"/><path class="cls-4" d="M74.58,45.28h-8a1.33,1.33,0,0,1,0-2.66h8a1.33,1.33,0,0,1,0,2.66Z"/><path class="cls-4" d="M74.58,51.93h-8a1.33,1.33,0,1,1,0-2.66h8a1.33,1.33,0,1,1,0,2.66Z"/><path class="cls-4" d="M26.71,57.25H21.39a1.33,1.33,0,0,1-.94-.39,1.36,1.36,0,0,1-.39-.94V50.6a1.33,1.33,0,0,1,2.66,0v4h2.66V33.32H22.72v4a1.33,1.33,0,1,1-2.66,0V32a1.36,1.36,0,0,1,.39-.94,1.33,1.33,0,0,1,.94-.39h5.32A1.33,1.33,0,0,1,28,32V55.92a1.33,1.33,0,0,1-1.33,1.33Zm-5.32-12A1.33,1.33,0,1,1,22.72,44a1.33,1.33,0,0,1-1.33,1.33Z"/><path class="cls-4" d="M21.39,38.64h-8a1.33,1.33,0,0,1,0-2.66h8a1.33,1.33,0,1,1,0,2.66Z"/><path class="cls-4" d="M21.39,45.28h-8a1.33,1.33,0,0,1,0-2.66h8a1.33,1.33,0,0,1,0,2.66Z"/><path class="cls-4" d="M21.39,51.93h-8a1.33,1.33,0,0,1,0-2.66h8a1.33,1.33,0,1,1,0,2.66Z"/><path class="cls-4" d="M43.71,54.86h4.9L44.17,34.58H38.41L34,54.86h4.86l.58-3.7h3.71l.58,3.7ZM40,47.71l1.34-8.38,1.3,8.38ZM54,37.16v-4H49.51v4Zm0,1.77H49.51V54.86H54V38.93Z"/></svg>